<?xml version="1.0" encoding="UTF-8"?>
<svg version="1.1" xmlns="http://www.w3.org/2000/svg" width="1524" height="107">
<path d="M0 0 C502.92 0 1005.84 0 1524 0 C1524 35.31 1524 70.62 1524 107 C1021.08 107 518.16 107 0 107 C0 71.69 0 36.38 0 0 Z " fill="#154C8C" transform="translate(0,0)"/>
<path d="M0 0 C3.52787301 1.95657197 5.70285021 4.10855063 7 8 C7.37290034 13.03415457 6.98878273 15.89042374 4 20 C4.99 20.33 5.98 20.66 7 21 C6.67 21.99 6.34 22.98 6 24 C3.59915847 23.79766493 1.20823667 23.56433092 -1.1875 23.3125 C-1.86103516 23.25900391 -2.53457031 23.20550781 -3.22851562 23.15039062 C-6.92773371 22.7353564 -8.97005834 22.02269388 -11.953125 19.76171875 C-14.84043065 15.86606017 -14.64237669 13.2960153 -14.43359375 8.6015625 C-13.85603572 5.13621432 -12.6183023 3.31026673 -10 1 C-6.76918255 -0.61540873 -3.49240902 -0.5896275 0 0 Z " fill="#EAEFF2" transform="translate(777,42)"/>
<path d="M0 0 C3.37495058 0.02428022 5.14420406 0.59958588 7.75 2.75 C11.35190375 6.43975506 11.46427226 8.22648823 11.41796875 13.34765625 C11.3125 15.375 11.3125 15.375 10.75 18.125 C10.26877217 20.59988597 10.63462267 21.98485476 11.3125 24.375 C8.72563747 24.14639354 6.14531308 23.89311208 3.5625 23.625 C2.83289063 23.563125 2.10328125 23.50125 1.3515625 23.4375 C-2.1147006 23.05936221 -4.35209688 22.6334954 -7.140625 20.484375 C-9.8989927 16.7229645 -10.07282844 13.11388638 -10.05078125 8.6015625 C-9.47427304 5.06812506 -7.4169396 3.50529432 -4.6875 1.375 C-3.6875 0.375 -3.6875 0.375 0 0 Z " fill="#E9EEF1" transform="translate(527.6875,41.625)"/>
<path d="M0 0 C3.58552881 1.63687185 4.79315055 2.68972583 7 6 C7.71207438 10.88516144 7.72852643 14.8100735 5.125 19.0625 C1.4557327 22.40800842 -1.6004018 22.52492288 -6.4453125 22.46875 C-10.21699355 21.77669843 -11.82056825 20.13445504 -13.99609375 17.06640625 C-15.81898162 13.31423628 -15.72565687 11.15603481 -15 7 C-11.26524944 0.67965289 -7.13228216 -0.78030726 0 0 Z " fill="#275994" transform="translate(404,42)"/>
<path d="M0 0 C2.31 0 4.62 0 7 0 C7.50559908 1.43554025 8.0042749 2.8735202 8.5 4.3125 C8.7784375 5.11300781 9.056875 5.91351563 9.34375 6.73828125 C10 9 10 9 10 12 C10.66 12 11.32 12 12 12 C12.12375 10.7625 12.2475 9.525 12.375 8.25 C12.75746305 5.1237803 13.30549523 2.71120763 15 0 C16.98 0 18.96 0 21 0 C21 7.26 21 14.52 21 22 C19.68 22 18.36 22 17 22 C16.67 19.03 16.34 16.06 16 13 C15.01 15.97 14.02 18.94 13 22 C11.35 22 9.7 22 8 22 C7.34 19.36 6.68 16.72 6 14 C5.67 16.64 5.34 19.28 5 22 C3.35 22 1.7 22 0 22 C0 14.74 0 7.48 0 0 Z " fill="#E1E8EE" transform="translate(874,42)"/>
<path d="M0 0 C1.65 0 3.3 0 5 0 C5.99 3.63 6.98 7.26 8 11 C8.99 7.37 9.98 3.74 11 0 C12.98 0 14.96 0 17 0 C17.99 3.3 18.98 6.6 20 10 C22.18975773 6.71536341 22.99806563 3.79303725 24 0 C25.32 0 26.64 0 28 0 C26.99322726 7.66331719 25.7039577 14.74847707 23 22 C21.35 22 19.7 22 18 22 C17.491217 20.44033782 16.99336531 18.87710759 16.5 17.3125 C16.2215625 16.44238281 15.943125 15.57226562 15.65625 14.67578125 C15.00149195 12.00608323 14.88168505 9.73603316 15 7 C14.34 7 13.68 7 13 7 C13.061875 7.804375 13.12375 8.60875 13.1875 9.4375 C12.94860593 13.97648733 11.57956736 17.76901601 10 22 C8.35 22 6.7 22 5 22 C3.70155232 17.60525401 2.51180759 13.18947607 1.375 8.75 C0.98441406 7.22632813 0.98441406 7.22632813 0.5859375 5.671875 C0 3 0 3 0 0 Z " fill="#E5EBEF" transform="translate(670,42)"/>
<path d="M0 0 C13.30759413 -0.36965539 13.30759413 -0.36965539 16.421875 1.29296875 C18 3 18 3 18.5 6.5 C18 10 18 10 16 11.9375 C15.34 12.288125 14.68 12.63875 14 13 C14.61875 13.7425 15.2375 14.485 15.875 15.25 C17.60437281 17.48801188 18.86106661 19.43739987 20 22 C17.3125 22.5 17.3125 22.5 14 22 C12.46602189 20.04647233 11.37865298 18.06984483 10.2734375 15.84765625 C8.97286174 13.52489327 8.97286174 13.52489327 5 13 C5 15.97 5 18.94 5 22 C3.35 22 1.7 22 0 22 C0 14.74 0 7.48 0 0 Z " fill="#E3EAEF" transform="translate(1039,42)"/>
<path d="M0 0 C1.794375 0.309375 1.794375 0.309375 3.625 0.625 C5.30089385 0.3416827 6.97118222 0.01714236 8.625 -0.375 C8.70603404 2.54222548 8.76551081 5.45719516 8.8125 8.375 C8.83763672 9.2 8.86277344 10.025 8.88867188 10.875 C8.93131956 14.40054229 8.93842409 16.95513283 7.4296875 20.1796875 C5.03478903 22.09767978 3.60308603 22.09851678 0.5625 22 C-0.31535156 21.98710938 -1.19320312 21.97421875 -2.09765625 21.9609375 C-4.375 21.625 -4.375 21.625 -6.375 19.625 C-6.375 18.635 -6.375 17.645 -6.375 16.625 C-4.725 16.625 -3.075 16.625 -1.375 16.625 C-1.375 17.285 -1.375 17.945 -1.375 18.625 C0.275 18.295 1.925 17.965 3.625 17.625 C3.955 16.305 4.285 14.985 4.625 13.625 C3.965 13.625 3.305 13.625 2.625 13.625 C2.625 14.285 2.625 14.945 2.625 15.625 C-0.75 15.3125 -0.75 15.3125 -4.375 14.625 C-6.44020632 11.52719052 -6.66977024 10.6709519 -6.6875 7.125 C-6.70425781 6.3515625 -6.72101562 5.578125 -6.73828125 4.78125 C-6.375 2.625 -6.375 2.625 -5.06640625 0.8203125 C-3.375 -0.375 -3.375 -0.375 0 0 Z " fill="#E5EBF0" transform="translate(1018.375,48.375)"/>
<path d="M0 0 C3 0.625 3 0.625 5.16015625 2.75390625 C7.36044708 6.18748111 7.5078003 8.14288954 7.4375 12.1875 C7.43621094 13.30253906 7.43492187 14.41757812 7.43359375 15.56640625 C6.96370858 18.88100163 6.39448421 20.3136576 4 22.625 C0.14899394 23.18514634 -2.01282164 23.35878498 -5.19140625 20.99609375 C-7.54419435 17.91155298 -7.53558464 16.03508933 -7.5 12.1875 C-7.51546875 10.51880859 -7.51546875 10.51880859 -7.53125 8.81640625 C-6.72918569 3.99812286 -4.89179006 1.01912293 0 0 Z " fill="#E3EAEF" transform="translate(445,41.375)"/>
<path d="M0 0 C1.65 0 3.3 0 5 0 C7.01953125 2.625 7.01953125 2.625 8.8125 6 C9.41707031 7.11375 10.02164063 8.2275 10.64453125 9.375 C11.09183594 10.24125 11.53914062 11.1075 12 12 C12.33 8.04 12.66 4.08 13 0 C14.32 0 15.64 0 17 0 C17 7.26 17 14.52 17 22 C15.35 22 13.7 22 12 22 C9.98046875 19.375 9.98046875 19.375 8.1875 16 C7.58292969 14.88625 6.97835937 13.7725 6.35546875 12.625 C5.68451172 11.325625 5.68451172 11.325625 5 10 C4.67 13.96 4.34 17.92 4 22 C2.68 22 1.36 22 0 22 C0 14.74 0 7.48 0 0 Z " fill="#F0F4F5" transform="translate(586,42)"/>
<path d="M0 0 C1.65 0 3.3 0 5 0 C8.81354127 7.06211347 11.40417233 14.42528974 14 22 C12.35 22 10.7 22 9 22 C8.76539063 21.35546875 8.53078125 20.7109375 8.2890625 20.046875 C7.18838927 17.7922092 7.18838927 17.7922092 4.8359375 17.390625 C3.61777344 17.32101563 3.61777344 17.32101563 2.375 17.25 C1.55773437 17.19328125 0.74046875 17.1365625 -0.1015625 17.078125 C-1.04128906 17.03945313 -1.04128906 17.03945313 -2 17 C-2.33 18.65 -2.66 20.3 -3 22 C-4.65 22 -6.3 22 -8 22 C-5.92957946 14.39162534 -3.14169523 7.2271408 0 0 Z " fill="#E6ECF0" transform="translate(570,42)"/>
<path d="M0 0 C2.475 0.495 2.475 0.495 5 1 C5.33 0.67 5.66 0.34 6 0 C9.4375 0.25 9.4375 0.25 13 1 C15.47082138 4.70623207 15.54464038 7.70339258 15 12 C13.875 14.5 13.875 14.5 12 16 C8.875 16.3125 8.875 16.3125 6 16 C5.67 15.67 5.34 15.34 5 15 C4.67 17.31 4.34 19.62 4 22 C2.68 22 1.36 22 0 22 C0 14.74 0 7.48 0 0 Z " fill="#ECF1F3" transform="translate(1078,48)"/>
<path d="M0 0 C1.2065625 0.0309375 1.2065625 0.0309375 2.4375 0.0625 C3.77641561 3.35192366 5.10767703 6.64439109 6.4375 9.9375 C6.8190625 10.87464844 7.200625 11.81179687 7.59375 12.77734375 C7.9546875 13.67324219 8.315625 14.56914063 8.6875 15.4921875 C9.19023438 16.73331299 9.19023438 16.73331299 9.703125 17.99951172 C10.4375 20.0625 10.4375 20.0625 10.4375 22.0625 C8.7875 22.0625 7.1375 22.0625 5.4375 22.0625 C5.1075 20.4125 4.7775 18.7625 4.4375 17.0625 C2.97802295 17.12256078 1.51970728 17.2113689 0.0625 17.3125 C-0.74960937 17.35890625 -1.56171875 17.4053125 -2.3984375 17.453125 C-4.75088927 17.8547092 -4.75088927 17.8547092 -5.8515625 20.109375 C-6.08617187 20.75390625 -6.32078125 21.3984375 -6.5625 22.0625 C-7.8825 22.0625 -9.2025 22.0625 -10.5625 22.0625 C-9.94160554 17.07206079 -8.46748961 12.85522252 -6.5625 8.25 C-6.28921875 7.57001953 -6.0159375 6.89003906 -5.734375 6.18945312 C-3.24886482 0.07924061 -3.24886482 0.07924061 0 0 Z " fill="#E9EEF1" transform="translate(505.5625,41.9375)"/>
<path d="M0 0 C5.28 0 10.56 0 16 0 C16 1.32 16 2.64 16 4 C12.04 4 8.08 4 4 4 C4 5.65 4 7.3 4 9 C7.63 9 11.26 9 15 9 C15 10.32 15 11.64 15 13 C11.7 13 8.4 13 5 13 C5 14.65 5 16.3 5 18 C8.96 18 12.92 18 17 18 C17 19.32 17 20.64 17 22 C11.39 22 5.78 22 0 22 C0 14.74 0 7.48 0 0 Z " fill="#E8EEF1" transform="translate(608,42)"/>
<path d="M0 0 C1.65 0 3.3 0 5 0 C5.33 5.61 5.66 11.22 6 17 C7.65 17.33 9.3 17.66 11 18 C13.11925604 15.88074396 12.41831017 11.3803907 12.5625 8.4375 C12.60568359 7.63119141 12.64886719 6.82488281 12.69335938 5.99414062 C12.79975262 3.99631195 12.90040888 1.9981793 13 0 C14.65 0 16.3 0 18 0 C18.08132187 2.56314499 18.14064175 5.12368418 18.1875 7.6875 C18.21263672 8.40873047 18.23777344 9.12996094 18.26367188 9.87304688 C18.32679275 14.48087064 17.79834732 17.31351222 15 21 C13.35034831 22.64965169 11.4523645 22.24949498 9.1875 22.3125 C7.87845703 22.36857422 7.87845703 22.36857422 6.54296875 22.42578125 C4 22 4 22 1.69140625 20.55859375 C-0.84769645 16.71768782 -0.43252506 13.24292449 -0.25 8.75 C-0.23195313 7.90953125 -0.21390625 7.0690625 -0.1953125 6.203125 C-0.14830798 4.13492605 -0.07656724 2.06731559 0 0 Z " fill="#E1E8EE" transform="translate(542,42)"/>
<path d="M0 0 C3.38677089 2.45000447 4.78698584 3.86392446 5.5625 8 C4.84202557 11.8425303 3.99097304 13.45767292 1 16 C-2.99893269 16.94237143 -5.98105682 16.61136591 -9.5 14.5 C-11.61897146 10.9683809 -11.79841448 8.01676563 -11 4 C-8.16650967 -0.53358453 -5.10426635 -0.80593679 0 0 Z " fill="#E7EDF1" transform="translate(1107,48)"/>
<path d="M0 0 C3.38677089 2.45000447 4.78698584 3.86392446 5.5625 8 C4.84202557 11.8425303 3.99097304 13.45767292 1 16 C-2.99893269 16.94237143 -5.98105682 16.61136591 -9.5 14.5 C-11.61897146 10.9683809 -11.79841448 8.01676563 -11 4 C-8.16650967 -0.53358453 -5.10426635 -0.80593679 0 0 Z " fill="#E7EDF1" transform="translate(910,48)"/>
<path d="M0 0 C3.4375 0.5625 3.4375 0.5625 5.875 2.0625 C8.07849302 5.58808884 8.23419284 8.51264472 7.4375 12.5625 C5.9375 15.0625 5.9375 15.0625 3.4375 16.5625 C0.62832139 17.16693392 -1.76007073 17.22290854 -4.5625 16.5625 C-7.55347304 14.02017292 -8.40452557 12.4050303 -9.125 8.5625 C-8.10942024 3.14607461 -5.36154281 0.84655939 0 0 Z " fill="#E8EEF1" transform="translate(962.5625,47.4375)"/>
<path d="M0 0 C0 1.65 0 3.3 0 5 C0.99 5 1.98 5 3 5 C3 5.99 3 6.98 3 8 C2.01 8 1.02 8 0 8 C0 11.3 0 14.6 0 18 C0.99 18 1.98 18 3 18 C3 18.99 3 19.98 3 21 C1.00045254 21.04254356 -1.00041636 21.04080783 -3 21 C-4 20 -4 20 -4.09765625 17.49609375 C-4.08605469 16.48675781 -4.07445312 15.47742188 -4.0625 14.4375 C-4.05347656 13.42558594 -4.04445313 12.41367187 -4.03515625 11.37109375 C-4.02355469 10.58863281 -4.01195312 9.80617188 -4 9 C-6.31 9.33 -8.62 9.66 -11 10 C-11.33 13.63 -11.66 17.26 -12 21 C-13.32 21 -14.64 21 -16 21 C-16 15.72 -16 10.44 -16 5 C-12.04 5 -8.08 5 -4 5 C-3.67 3.68 -3.34 2.36 -3 1 C-1 0 -1 0 0 0 Z " fill="#EDF2F4" transform="translate(1131,43)"/>
<path d="M0 0 C3.96 0 7.92 0 12 0 C12 1.65 12 3.3 12 5 C9.03 5 6.06 5 3 5 C3 5.99 3 6.98 3 8 C3.928125 7.938125 4.85625 7.87625 5.8125 7.8125 C9 8 9 8 10.875 9.0625 C12.64796631 12.11594197 12.36343372 14.54737962 12 18 C11 20.4375 11 20.4375 9 22 C5.33224935 22.67242095 2.16590931 22.76512799 -1 20.6875 C-2 19 -2 19 -2 16 C-0.35 16.33 1.3 16.66 3 17 C3 17.66 3 18.32 3 19 C4.32 18.34 5.64 17.68 7 17 C7 15.35 7 13.7 7 12 C4.36 12 1.72 12 -1 12 C-1.07329796 7.60212211 -1.07396066 4.29584263 0 0 Z " fill="#EBF0F3" transform="translate(474,42)"/>
<path d="M0 0 C2.4375 1.5625 2.4375 1.5625 4 4 C4.13322539 7.59708547 3.86035311 9.91685573 1.58203125 12.78515625 C0.11809017 14.25605192 -1.43615672 15.63579629 -3 17 C-0.69 17.33 1.62 17.66 4 18 C4 19.32 4 20.64 4 22 C-0.95 22 -5.9 22 -11 22 C-9.0104904 17.02622599 -7.16173422 14.77800451 -3.55859375 11.0625 C-1.77161711 8.69777903 -1.36900523 6.91160288 -1 4 C-2.97536745 4.34786708 -2.97536745 4.34786708 -5 5 C-5.33 5.66 -5.66 6.32 -6 7 C-7.32 7 -8.64 7 -10 7 C-9.6875 4.625 -9.6875 4.625 -9 2 C-5.50875983 -0.32749345 -4.10777749 -0.50299316 0 0 Z " fill="#E6ECF0" transform="translate(465,42)"/>
<path d="M0 0 C1.051875 -0.02126953 1.051875 -0.02126953 2.125 -0.04296875 C4 0.1875 4 0.1875 6 2.1875 C6.30059943 4.55259361 6.49515012 6.93191881 6.625 9.3125 C6.69976563 10.59382813 6.77453125 11.87515625 6.8515625 13.1953125 C6.92503906 14.67644531 6.92503906 14.67644531 7 16.1875 C4.87527424 16.24136629 2.75016348 16.28023071 0.625 16.3125 C-0.55835938 16.33570312 -1.74171875 16.35890625 -2.9609375 16.3828125 C-6 16.1875 -6 16.1875 -8 14.1875 C-7.9375 11.75 -7.9375 11.75 -7 9.1875 C-3.68035674 6.58561744 -2.30683959 6.1875 2 6.1875 C1.67 5.5275 1.34 4.8675 1 4.1875 C-1.64 4.5175 -4.28 4.8475 -7 5.1875 C-6.625 3.25 -6.625 3.25 -6 1.1875 C-3.77109005 0.07304502 -2.46944894 0.02269714 0 0 Z " fill="#ECF1F3" transform="translate(812,47.8125)"/>
<path d="M0 0 C1.051875 -0.02126953 1.051875 -0.02126953 2.125 -0.04296875 C4 0.1875 4 0.1875 6 2.1875 C6.30059943 4.55259361 6.49515012 6.93191881 6.625 9.3125 C6.69976563 10.59382813 6.77453125 11.87515625 6.8515625 13.1953125 C6.92503906 14.67644531 6.92503906 14.67644531 7 16.1875 C4.87527424 16.24136629 2.75016348 16.28023071 0.625 16.3125 C-0.55835938 16.33570312 -1.74171875 16.35890625 -2.9609375 16.3828125 C-6 16.1875 -6 16.1875 -8 14.1875 C-7.9375 11.75 -7.9375 11.75 -7 9.1875 C-3.68035674 6.58561744 -2.30683959 6.1875 2 6.1875 C1.67 5.5275 1.34 4.8675 1 4.1875 C-1.64 4.5175 -4.28 4.8475 -7 5.1875 C-6.625 3.25 -6.625 3.25 -6 1.1875 C-3.77109005 0.07304502 -2.46944894 0.02269714 0 0 Z " fill="#ECF1F3" transform="translate(706,47.8125)"/>
<path d="M0 0 C2.4375 1.5625 2.4375 1.5625 4 4 C4.13322539 7.59708547 3.86035311 9.91685573 1.58203125 12.78515625 C0.11809017 14.25605192 -1.43615672 15.63579629 -3 17 C-0.69 17.33 1.62 17.66 4 18 C4 19.32 4 20.64 4 22 C-0.62 22 -5.24 22 -10 22 C-8.88888889 16.44444444 -8.88888889 16.44444444 -5.5 13.5 C-3.06970928 11.22874671 -2.09427854 10.29540611 -1.0625 7.0625 C-1.041875 6.381875 -1.02125 5.70125 -1 5 C-2.32 5 -3.64 5 -5 5 C-5.33 5.66 -5.66 6.32 -6 7 C-7.32 7 -8.64 7 -10 7 C-9.60856977 4.72970466 -9.11258722 3.16591802 -7.8125 1.25 C-5.08249081 -0.63276496 -3.23585302 -0.46226472 0 0 Z " fill="#EBF0F3" transform="translate(431,42)"/>
<path d="M0 0 C3.5 0.625 3.5 0.625 5.9375 2.875 C7.5 5.625 7.5 5.625 7.5 9.625 C4.2 9.625 0.9 9.625 -2.5 9.625 C-2.17 10.615 -1.84 11.605 -1.5 12.625 C0.51508358 13.35823796 0.51508358 13.35823796 2.5 13.625 C2.5 12.965 2.5 12.305 2.5 11.625 C3.82 11.625 5.14 11.625 6.5 11.625 C5.625 15.5 5.625 15.5 4.5 16.625 C-2.83333333 17.09811828 -2.83333333 17.09811828 -5.4375 15.25 C-7.63302006 11.8921458 -7.8943461 9.64733021 -7.5 5.625 C-5.39427076 1.7504582 -4.38276659 0.78263689 0 0 Z " fill="#E6ECF0" transform="translate(1067.5,47.375)"/>
<path d="M0 0 C2.375 1.6875 2.375 1.6875 4 4 C4 5.65 4 7.3 4 9 C0.7 9 -2.6 9 -6 9 C-5.01 10.485 -5.01 10.485 -4 12 C-1.36 11.67 1.28 11.34 4 11 C3.125 14.875 3.125 14.875 2 16 C-1.98536922 16.48427793 -5.73252113 16.92180281 -9.0625 14.5 C-10.40382715 10.9231276 -10.68701181 7.76698612 -10 4 C-7.31163109 -0.13595217 -4.79825109 -0.79970851 0 0 Z " fill="#E8EDF1" transform="translate(735,48)"/>
<path d="M0 0 C1.32 0 2.64 0 4 0 C4.99 2.64 5.98 5.28 7 8 C8.32 5.36 9.64 2.72 11 0 C12.32 0 13.64 0 15 0 C10.07762557 19.61491629 10.07762557 19.61491629 5 23 C2.3125 22.625 2.3125 22.625 0 22 C0 21.01 0 20.02 0 19 C1.32 19 2.64 19 4 19 C3.62651454 14.74226578 3.22981769 11.14744555 1.4375 7.25 C0 4 0 4 0 0 Z " fill="#E4EBEF" transform="translate(848,48)"/>
<path d="M0 0 C2.475 0.495 2.475 0.495 5 1 C5.33 0.67 5.66 0.34 6 0 C11.29392491 -0.4603413 11.29392491 -0.4603413 13.68359375 1.09765625 C15.64837283 3.93696608 15.28858169 6.28441648 15.1875 9.6875 C15.16042969 10.86699219 15.13335938 12.04648437 15.10546875 13.26171875 C15.07066406 14.16535156 15.03585937 15.06898437 15 16 C13.35 16 11.7 16 10 16 C9.67 12.04 9.34 8.08 9 4 C7.68 4.33 6.36 4.66 5 5 C4.67 8.63 4.34 12.26 4 16 C2.68 16 1.36 16 0 16 C0 10.72 0 5.44 0 0 Z " fill="#D9E2EA" transform="translate(918,48)"/>
<path d="M0 0 C3.58552881 1.63687185 4.79315055 2.68972583 7 6 C7.71207438 10.88516144 7.72852643 14.8100735 5.125 19.0625 C1.4557327 22.40800842 -1.6004018 22.52492288 -6.4453125 22.46875 C-10.21699355 21.77669843 -11.82056825 20.13445504 -13.99609375 17.06640625 C-15.81898162 13.31423628 -15.72565687 11.15603481 -15 7 C-11.26524944 0.67965289 -7.13228216 -0.78030726 0 0 Z M-12 7 C-12.33 7.33 -12.66 7.66 -13 8 C-13.43784542 11.85303968 -13.30585252 13.54122122 -11.125 16.8125 C-8.56894626 19.44373179 -7.77721341 19.94931217 -4.125 20.1875 C-1.05371571 20.00322294 0.48618314 19.7058043 3 18 C5.4915904 14.2626144 5.45793285 12.42668417 5 8 C3.20437595 5.24670979 1.94745078 3.47372539 -1 2 C-6.58306365 1.25559151 -8.42464119 2.81172253 -12 7 Z " fill="#E0E8ED" transform="translate(404,42)"/>
<path d="M0 0 C2.475 0.495 2.475 0.495 5 1 C5.33 0.67 5.66 0.34 6 0 C8.9375 -0.1875 8.9375 -0.1875 12 0 C14 2 14 2 14.1953125 5.2578125 C14.16050781 7.17207031 14.16050781 7.17207031 14.125 9.125 C14.10695313 10.40632813 14.08890625 11.68765625 14.0703125 13.0078125 C14.04710937 13.99523438 14.02390625 14.98265625 14 16 C12.68 16 11.36 16 10 16 C9.67 12.04 9.34 8.08 9 4 C7.68 4.33 6.36 4.66 5 5 C4.67 8.63 4.34 12.26 4 16 C2.68 16 1.36 16 0 16 C0 10.72 0 5.44 0 0 Z " fill="#EBF0F2" transform="translate(994,48)"/>
<path d="M0 0 C1.32 0 2.64 0 4 0 C4.33 3.96 4.66 7.92 5 12 C6.65 12 8.3 12 10 12 C10 8.04 10 4.08 10 0 C11.32 0 12.64 0 14 0 C14 5.28 14 10.56 14 16 C4.8203125 16.1953125 4.8203125 16.1953125 2 16 C0 14 0 14 -0.1953125 10.7421875 C-0.17210937 9.46601562 -0.14890625 8.18984375 -0.125 6.875 C-0.10695313 5.59367187 -0.08890625 4.31234375 -0.0703125 2.9921875 C-0.04710937 2.00476562 -0.02390625 1.01734375 0 0 Z " fill="#F1F5F6" transform="translate(787,48)"/>
<path d="M0 0 C5.94 0 11.88 0 18 0 C18 1.32 18 2.64 18 4 C15.69 4 13.38 4 11 4 C11 9.94 11 15.88 11 22 C9.68 22 8.36 22 7 22 C7 16.06 7 10.12 7 4 C4.69 4 2.38 4 0 4 C0 2.68 0 1.36 0 0 Z " fill="#EDF2F4" transform="translate(626,42)"/>
<path d="M0 0 C3 0.4375 3 0.4375 4.875 1.5 C6.60291334 4.47585075 6.24465864 7.07344369 6 10.4375 C5.67 11.0975 5.34 11.7575 5 12.4375 C3.35 12.4375 1.7 12.4375 0 12.4375 C0.33 13.4275 0.66 14.4175 1 15.4375 C-1.23288365 15.05252006 -2.83656302 14.54256663 -4.75 13.3125 C-6.73520551 10.33469174 -6.36633148 7.91764908 -6 4.4375 C-4.4369108 1.05080673 -3.7186535 0.54230363 0 0 Z " fill="#225692" transform="translate(773,45.5625)"/>
<path d="M0 0 C3.0625 0.3125 3.0625 0.3125 4.9375 1.3125 C6.76738947 4.56563684 6.24378355 7.62640109 6.0625 11.3125 C3.0625 12.3125 3.0625 12.3125 0.0625 11.3125 C0.7225 12.6325 1.3825 13.9525 2.0625 15.3125 C-2.6875 14.5625 -2.6875 14.5625 -4.9375 12.3125 C-5.203125 10 -5.203125 10 -5.1875 7.3125 C-5.19265625 6.425625 -5.1978125 5.53875 -5.203125 4.625 C-4.78088977 0.94906979 -3.57729598 0.3805634 0 0 Z " fill="#205491" transform="translate(527.9375,45.6875)"/>
<path d="M0 0 C0 1.65 0 3.3 0 5 C0.66 5 1.32 5 2 5 C2 5.99 2 6.98 2 8 C1.34 8 0.68 8 0 8 C0 11.3 0 14.6 0 18 C0.99 18 1.98 18 3 18 C3 18.99 3 19.98 3 21 C0.125 21.125 0.125 21.125 -3 21 C-5 19 -5 19 -5.1953125 16.6171875 C-5.17210937 15.71226563 -5.14890625 14.80734375 -5.125 13.875 C-5.10695313 12.96492188 -5.08890625 12.05484375 -5.0703125 11.1171875 C-5.04710937 10.41851562 -5.02390625 9.71984375 -5 9 C-5.66 9 -6.32 9 -7 9 C-7 7.68 -7 6.36 -7 5 C-6.34 5 -5.68 5 -5 5 C-4.87625 4.360625 -4.7525 3.72125 -4.625 3.0625 C-4.41875 2.381875 -4.2125 1.70125 -4 1 C-2 0 -2 0 0 0 Z " fill="#DAE3EA" transform="translate(950,43)"/>
<path d="M0 0 C0 1.65 0 3.3 0 5 C0.66 5 1.32 5 2 5 C2 5.99 2 6.98 2 8 C1.34 8 0.68 8 0 8 C0 11.3 0 14.6 0 18 C0.99 18 1.98 18 3 18 C3 18.99 3 19.98 3 21 C0.125 21.125 0.125 21.125 -3 21 C-5 19 -5 19 -5.1953125 16.6171875 C-5.17210937 15.71226563 -5.14890625 14.80734375 -5.125 13.875 C-5.10695313 12.96492188 -5.08890625 12.05484375 -5.0703125 11.1171875 C-5.04710937 10.41851562 -5.02390625 9.71984375 -5 9 C-5.66 9 -6.32 9 -7 9 C-7 7.68 -7 6.36 -7 5 C-6.34 5 -5.68 5 -5 5 C-4.87625 4.360625 -4.7525 3.72125 -4.625 3.0625 C-4.41875 2.381875 -4.2125 1.70125 -4 1 C-2 0 -2 0 0 0 Z " fill="#DAE3EA" transform="translate(844,43)"/>
<path d="M0 0 C0 1.65 0 3.3 0 5 C0.66 5 1.32 5 2 5 C2 5.99 2 6.98 2 8 C1.34 8 0.68 8 0 8 C0 11.3 0 14.6 0 18 C0.99 18 1.98 18 3 18 C3 18.99 3 19.98 3 21 C0.125 21.125 0.125 21.125 -3 21 C-5 19 -5 19 -5.1953125 16.6171875 C-5.17210937 15.71226563 -5.14890625 14.80734375 -5.125 13.875 C-5.10695313 12.96492188 -5.08890625 12.05484375 -5.0703125 11.1171875 C-5.04710937 10.41851562 -5.02390625 9.71984375 -5 9 C-5.66 9 -6.32 9 -7 9 C-7 7.68 -7 6.36 -7 5 C-6.34 5 -5.68 5 -5 5 C-4.87625 4.360625 -4.7525 3.72125 -4.625 3.0625 C-4.41875 2.381875 -4.2125 1.70125 -4 1 C-2 0 -2 0 0 0 Z " fill="#DAE3EA" transform="translate(721,43)"/>
<path d="M0 0 C1.32 0 2.64 0 4 0 C4 9.57 4 19.14 4 29 C2.68 29 1.36 29 0 29 C0 19.43 0 9.86 0 0 Z " fill="#D1DCE6" transform="translate(655,42)"/>
<path d="M0 0 C3.3 0 6.6 0 10 0 C10 1.32 10 2.64 10 4 C8.68 4.33 7.36 4.66 6 5 C5.67 8.63 5.34 12.26 5 16 C3.35 16 1.7 16 0 16 C0 10.72 0 5.44 0 0 Z " fill="#D7E1E9" transform="translate(973,48)"/>
<path d="M0 0 C3.96 0 7.92 0 12 0 C12 1.65 12 3.3 12 5 C9.03 5 6.06 5 3 5 C3 5.99 3 6.98 3 8 C3.66 8.33 4.32 8.66 5 9 C4.01 10.485 4.01 10.485 3 12 C1.68 12 0.36 12 -1 12 C-1.07329796 7.60212211 -1.07396066 4.29584263 0 0 Z " fill="#D7E0E9" transform="translate(474,42)"/>
<path d="M0 0 C1.32 0 2.64 0 4 0 C4 7.26 4 14.52 4 22 C2.68 22 1.36 22 0 22 C0 14.74 0 7.48 0 0 Z " fill="#ECF1F3" transform="translate(822,42)"/>
<path d="M0 0 C3.3 0 6.6 0 10 0 C9.67 1.32 9.34 2.64 9 4 C7.68 4.33 6.36 4.66 5 5 C4.67 8.63 4.34 12.26 4 16 C2.68 16 1.36 16 0 16 C0 10.72 0 5.44 0 0 Z " fill="#EFF3F4" transform="translate(743,48)"/>
<path d="M0 0 C0.125 2.375 0.125 2.375 0 5 C-0.66 5.66 -1.32 6.32 -2 7 C-1.67 7.66 -1.34 8.32 -1 9 C-4.375 9.125 -4.375 9.125 -8 9 C-8.66 8.34 -9.32 7.68 -10 7 C-9.9375 4.5625 -9.9375 4.5625 -9 2 C-5.81738059 -0.58050222 -3.89040693 -1.5849806 0 0 Z " fill="#DCE5EB" transform="translate(814,55)"/>
<path d="M0 0 C0.125 2.375 0.125 2.375 0 5 C-0.66 5.66 -1.32 6.32 -2 7 C-1.67 7.66 -1.34 8.32 -1 9 C-4.375 9.125 -4.375 9.125 -8 9 C-8.66 8.34 -9.32 7.68 -10 7 C-9.9375 4.5625 -9.9375 4.5625 -9 2 C-5.81738059 -0.58050222 -3.89040693 -1.5849806 0 0 Z " fill="#DCE5EB" transform="translate(708,55)"/>
<path d="M0 0 C0.66 0 1.32 0 2 0 C2 0.66 2 1.32 2 2 C2.66 2 3.32 2 4 2 C3.979375 3.0725 3.95875 4.145 3.9375 5.25 C3.9857984 8.14790424 4.13155885 10.28612141 5 13 C4.34 13 3.68 13 3 13 C3 15.64 3 18.28 3 21 C2.01 21 1.02 21 0 21 C0 14.07 0 7.14 0 0 Z " fill="#F5F8F7" transform="translate(1079,49)"/>
<path d="M0 0 C1.32 0.66 2.64 1.32 4 2 C4 5.63 4 9.26 4 13 C2.02 13.99 2.02 13.99 0 15 C-1 14 -1 14 -1.1328125 11.09375 C-1.13023437 9.9078125 -1.12765625 8.721875 -1.125 7.5 C-1.12757813 6.3140625 -1.13015625 5.128125 -1.1328125 3.90625 C-1 1 -1 1 0 0 Z " fill="#285A95" transform="translate(444,46)"/>
<path d="M0 0 C1.32 0 2.64 0 4 0 C4.9360342 3.79267192 4.98276252 6.93674565 4.5625 10.8125 C4.46066406 11.78832031 4.35882812 12.76414062 4.25390625 13.76953125 C4.12822266 14.87361328 4.12822266 14.87361328 4 16 C2.68 16 1.36 16 0 16 C0 10.72 0 5.44 0 0 Z " fill="#EEF2F4" transform="translate(918,48)"/>
<path d="M0 0 C1.32 0 2.64 0 4 0 C4 5.28 4 10.56 4 16 C2.68 16 1.36 16 0 16 C0 10.72 0 5.44 0 0 Z " fill="#ECF1F3" transform="translate(986,48)"/>
<path d="M0 0 C1.32 0 2.64 0 4 0 C4 5.28 4 10.56 4 16 C2.68 16 1.36 16 0 16 C0 10.72 0 5.44 0 0 Z " fill="#ECF1F3" transform="translate(937,48)"/>
<path d="M0 0 C1.32 0 2.64 0 4 0 C4 5.28 4 10.56 4 16 C2.68 16 1.36 16 0 16 C0 10.72 0 5.44 0 0 Z " fill="#ECF1F3" transform="translate(831,48)"/>
<path d="M0 0 C3.53571429 0.53571429 3.53571429 0.53571429 5 2 C5.04092937 4.33297433 5.04241723 6.66705225 5 9 C2.625 9.625 2.625 9.625 0 10 C-2 8 -2 8 -2.25 5 C-2 2 -2 2 0 0 Z " fill="#275994" transform="translate(1102,51)"/>
<path d="M0 0 C3.53571429 0.53571429 3.53571429 0.53571429 5 2 C5.04092937 4.33297433 5.04241723 6.66705225 5 9 C2.625 9.625 2.625 9.625 0 10 C-2 8 -2 8 -2.25 5 C-2 2 -2 2 0 0 Z " fill="#275994" transform="translate(905,51)"/>
<path d="M0 0 C0.99 0 1.98 0 3 0 C3 0.66 3 1.32 3 2 C3.66 2 4.32 2 5 2 C4.67 6.29 4.34 10.58 4 15 C2.68 15 1.36 15 0 15 C0 10.05 0 5.1 0 0 Z " fill="#F7F9F8" transform="translate(994,49)"/>
<path d="M0 0 C3.53571429 0.53571429 3.53571429 0.53571429 5 2 C5.1875 4.9375 5.1875 4.9375 5 8 C4.34 8.66 3.68 9.32 3 10 C1.68 10 0.36 10 -1 10 C-2.38125018 7.23749964 -2.19079306 5.05268901 -2 2 C-1.34 1.34 -0.68 0.68 0 0 Z " fill="#235793" transform="translate(961,51)"/>
<path d="M0 0 C0.66 1.32 1.32 2.64 2 4 C1.030625 3.814375 0.06125 3.62875 -0.9375 3.4375 C-1.948125 3.293125 -2.95875 3.14875 -4 3 C-5.29633621 4.06645115 -5.29633621 4.06645115 -5.0625 6.5625 C-5.041875 7.366875 -5.02125 8.17125 -5 9 C-1.535 8.505 -1.535 8.505 2 8 C1.67 9.32 1.34 10.64 1 12 C-2.375 12.125 -2.375 12.125 -6 12 C-8 10 -8 10 -8.3125 6.5625 C-8 3 -8 3 -6.8125 1.0625 C-4.43958382 -0.32851983 -2.70313576 -0.21917317 0 0 Z " fill="#E1E8EE" transform="translate(403,47)"/>
<path d="M0 0 C3.875 0.875 3.875 0.875 5 2 C5.23529412 7.52941176 5.23529412 7.52941176 4 10 C2.35 9.67 0.7 9.34 -1 9 C-1.625 6.1875 -1.625 6.1875 -2 3 C-1.34 2.01 -0.68 1.02 0 0 Z " fill="#2A5C96" transform="translate(1084,51)"/>
<path d="M0 0 C2.125 0.375 2.125 0.375 4 1 C4 3.64 4 6.28 4 9 C2.33388095 9.042721 0.66617115 9.04063832 -1 9 C-2 8 -2 8 -2.1875 5.0625 C-2 2 -2 2 0 0 Z " fill="#1D5290" transform="translate(1018,51)"/>
<path d="M0 0 C0.3403125 0.8353125 0.3403125 0.8353125 0.6875 1.6875 C2.43538688 4.76711022 4.25869081 6.74603466 7 9 C10.68441504 9.88527109 10.68441504 9.88527109 14 10 C14 10.66 14 11.32 14 12 C9.98608914 12.56194752 6.46860659 13.0315213 3.03125 10.6171875 C0.36708031 7.71424788 -1.0463074 6.08822397 -0.875 2.0625 C-0.58625 1.381875 -0.2975 0.70125 0 0 Z " fill="#E6ECF0" transform="translate(390,52)"/>
<path d="M0 0 C2.64 0 5.28 0 8 0 C8 1.65 8 3.3 8 5 C5.36 5 2.72 5 0 5 C0 3.35 0 1.7 0 0 Z " fill="#194F8D" transform="translate(1044,46)"/>
<path d="M0 0 C0.33 0 0.66 0 1 0 C1 1.65 1 3.3 1 5 C-4.34254689 8.03553801 -4.34254689 8.03553801 -7.3125 7.875 C-9 7 -9 7 -10 4 C-6.7 4 -3.4 4 0 4 C0 2.68 0 1.36 0 0 Z " fill="#3D6B9F" transform="translate(739,53)"/>
<path d="M0 0 C3.3 0 6.6 0 10 0 C9.34 0.66 8.68 1.32 8 2 C7.01 2 6.02 2 5 2 C5 2.66 5 3.32 5 4 C3.35 3.67 1.7 3.34 0 3 C0 2.01 0 1.02 0 0 Z " fill="#34649B" transform="translate(1065,57)"/>
<path d="M0 0 C0.66 0.66 1.32 1.32 2 2 C-1.625 6.875 -1.625 6.875 -5 8 C-5.33 7.01 -5.66 6.02 -6 5 C-5.38125 4.9175 -4.7625 4.835 -4.125 4.75 C-1.81562433 4.18741541 -1.81562433 4.18741541 -0.75 1.9375 C-0.5025 1.298125 -0.255 0.65875 0 0 Z " fill="#D0DBE6" transform="translate(409,56)"/>
<path d="M0 0 C0.66 0 1.32 0 2 0 C1.67 1.65 1.34 3.3 1 5 C-0.65 5 -2.3 5 -4 5 C-4 4.01 -4 3.02 -4 2 C-2.68 2 -1.36 2 0 2 C0 1.34 0 0.68 0 0 Z " fill="#36659B" transform="translate(1021,62)"/>
<path d="M0 0 C1.74627478 2.61941217 2.38722388 4.03824877 3 7 C1.35 7 -0.3 7 -2 7 C-1.125 1.125 -1.125 1.125 0 0 Z " fill="#2E5F98" transform="translate(505,48)"/>
<path d="M0 0 C1.9375 0.3125 1.9375 0.3125 4 1 C4.33 1.99 4.66 2.98 5 4 C3.02 4 1.04 4 -1 4 C-0.67 2.68 -0.34 1.36 0 0 Z " fill="#3C6A9F" transform="translate(1066,51)"/>
<path d="M0 0 C1.32 0.33 2.64 0.66 4 1 C4 1.99 4 2.98 4 4 C2.02 4 0.04 4 -2 4 C-1.34 2.68 -0.68 1.36 0 0 Z " fill="#3D6B9F" transform="translate(731,51)"/>
<path d="M0 0 C0.66 0.33 1.32 0.66 2 1 C2.625 4.0625 2.625 4.0625 3 7 C1.68 7 0.36 7 -1 7 C-0.67 4.69 -0.34 2.38 0 0 Z " fill="#2D5E97" transform="translate(572,48)"/>
<path d="M0 0 C1.32 0 2.64 0 4 0 C3.67 1.32 3.34 2.64 3 4 C1.68 4 0.36 4 -1 4 C-0.67 2.68 -0.34 1.36 0 0 Z " fill="#1E5390" transform="translate(810,57)"/>
<path d="M0 0 C1.32 0 2.64 0 4 0 C3.67 1.32 3.34 2.64 3 4 C1.68 4 0.36 4 -1 4 C-0.67 2.68 -0.34 1.36 0 0 Z " fill="#1E5390" transform="translate(704,57)"/>
<path d="M0 0 C1.32 0 2.64 0 4 0 C4 1.32 4 2.64 4 4 C2.35 4.33 0.7 4.66 -1 5 C-0.67 3.35 -0.34 1.7 0 0 Z " fill="#E3EAEF" transform="translate(979,48)"/>
</svg>
